<svg t="1742262039399" class="icon" viewBox="0 0 1024 1024" version="1.1" xmlns="http://www.w3.org/2000/svg" p-id="5576" width="128" height="128">
    <path d="M511.990324 511.996775h0.020642-0.020642zM186.858329 871.841684c-42.051316 0-76.26494 34.128474-76.264941 76.077868 0 41.948104 34.216204 76.079158 76.264941 76.079158h726.549573V871.841684H186.858329z m613.098491 94.80963H237.18728c-9.691645 0-17.54869-7.838983-17.54869-17.506115 0-9.665842 7.857045-17.502245 17.54869-17.502244h562.77083c9.690355 0 17.54482 7.836402 17.54482 17.502244 0 9.667132-7.857045 17.506115-17.54611 17.506115z"
          fill="#fff" p-id="5577"></path>
    <path d="M412.768363 555.423396c-10.167713 14.896131-15.250924 29.93934-15.250924 45.132207 0 11.367557 2.153269 19.018177 6.459807 22.963472 4.307828 3.953035 8.73177 5.923102 13.279567 5.923102 5.262543 0 13.158292-2.088761 23.687248-6.279185 10.522505-4.183973 20.633451-11.303049 30.322516-21.353358-8.138299-20.697959-13.878199-48.14988-17.226151-82.364794-17.348716 9.093013-31.10435 21.083715-41.272063 35.978556zM493.694634 574.712506c13.399551-19.495534 24.645834-43.783995 33.736266-72.85248-15.790209 0.356083-30.505718 2.573859-44.145238 6.639138 0.839891 24.042041 4.307828 46.119176 10.408972 66.213342z"
          fill="#fff" p-id="5578"></path>
    <path d="M809.098859 0v226.863459c0 13.456318-15.293499 21.962311-26.772009 14.890971l-72.221594-44.516803-72.224175 44.516803c-11.465609 7.061019-26.772009-1.426912-26.772009-14.890971V0H188.170416c-42.773803 0-77.577028 34.125893-77.577028 76.073997v790.9696c19.943218-18.721441 46.788766-30.211563 76.264941-30.211563h726.549573V0h-104.309043zM628.731301 641.465132c-18.9627 18.780788-47.82347 29.972884-86.583601 33.558226l-12.920904-29.067196c31.10306-0.962456 55.178645-7.921553 72.225465-20.903093 17.044239-12.982831 25.569585-29.223304 25.569585-48.722709 0-17.584814-6.550118-33.043453-19.649063-46.386237-13.097655-13.337624-29.576806-21.980373-49.438745-25.929538-12.55837 42.709296-29.727755 77.402857-51.500412 104.076814 1.434653 4.307828 5.383817 11.190806 11.843624 20.637322l-24.225243 16.866198a99.025857 99.025857 0 0 1-9.867107-15.074173c-22.967342 19.136871-44.74258 28.714983-65.317974 28.714983-14.834204 0-27.217113-4.789056-37.143566-14.358136-9.930324-9.569081-14.892261-23.687248-14.892261-42.350633 0-22.724793 8.042827-44.706456 24.133642-65.943699 16.090815-21.233373 36.695882-37.233877 61.820364-48.001512 0.714746-24.047202 1.492709-40.91598 2.33389-50.603755-25.123191 0.959875-44.982549 1.434653-59.578074 1.434653l-4.844532-27.991206c15.670224 0.599922 37.862183 0.356083 66.573295-0.717326 2.749321-25.599258 5.923102-46.178523 9.511024-61.731343l27.995076 4.129787-7.715128 55.448287c40.912109-2.751901 79.972846-7.415812 117.17963-13.999474l5.917942 27.27775c-44.978678 7.419682-86.849373 12.264215-125.609504 14.534888-2.034575 17.827364-2.929942 31.824257-2.692554 41.99197 15.55411-3.707906 29.670988-5.564439 42.351923-5.56444 3.709196 0 7.357755 0.122565 10.944386 0.359954 2.155849-5.623786 3.888528-13.336334 5.204486-23.149254l28.712402 4.129787c-0.599922 6.57334-1.853953 14.05495-3.771123 22.426766 24.164606 4.190424 45.521834 15.431546 64.063943 33.732397 18.540819 18.304721 27.815745 40.377985 27.815745 66.215922-0.00387 24.528429-9.486511 46.184973-28.446631 64.95802z"
          fill="#fff" p-id="5579"></path>
</svg>