<svg t="1742263834339" class="icon" viewBox="0 0 1024 1024" version="1.1" xmlns="http://www.w3.org/2000/svg" p-id="9981" width="128" height="128"><path d="M748.434286 200.667429l164.571428 603.428571a36.571429 36.571429 0 0 1-70.582857 19.236571L789.942857 630.857143h-167.972571l-20.406857 66.413714c-28.964571 86.820571-115.419429 153.014857-235.885715 153.014857a256 256 0 0 1-256-256 36.571429 36.571429 0 0 1 73.142857 0 182.857143 182.857143 0 0 0 182.857143 182.857143c88.100571 0 147.236571-45.275429 166.217143-102.180571l28.16-91.428572 118.125714-384c10.788571-34.998857 60.598857-34.194286 70.217143 1.097143zM365.714286 173.714286a146.285714 146.285714 0 0 1 146.285714 146.285714v274.285714a146.285714 146.285714 0 0 1-292.571429 0v-274.285714a146.285714 146.285714 0 0 1 146.285715-146.285714z m0 73.142857a73.142857 73.142857 0 0 0-73.142857 73.142857v274.285714a73.142857 73.142857 0 0 0 146.285714 0v-274.285714a73.142857 73.142857 0 0 0-73.142857-73.142857z m345.307428 94.646857l-66.56 216.210286h125.513143l-58.953143-216.210286z" fill="#fff" fill-opacity="1" p-id="9982"></path></svg>